<svg width="323" height="300" viewBox="0 0 323 300" fill="none" xmlns="http://www.w3.org/2000/svg">
<g filter="url(#filter0_d_0_1)">
<rect x="39" width="242" height="241" rx="10" fill="#FFC225"/>
<rect x="40" y="1" width="240" height="239" rx="9" stroke="black" stroke-width="2"/>
</g>
<g filter="url(#filter1_d_0_1)">
<path d="M40.1541 270.636H28.5376C28.4553 269.675 28.2356 268.803 27.8786 268.021C27.5353 267.238 27.0547 266.565 26.4368 266.002C25.8326 265.425 25.098 264.986 24.233 264.684C23.3679 264.368 22.3861 264.21 21.2876 264.21C19.3653 264.21 17.7382 264.677 16.4062 265.611C15.0881 266.545 14.0857 267.883 13.3991 269.627C12.7263 271.371 12.3899 273.465 12.3899 275.909C12.3899 278.491 12.7332 280.653 13.4197 282.397C14.12 284.127 15.1293 285.432 16.4474 286.31C17.7656 287.175 19.3516 287.608 21.2053 287.608C22.2625 287.608 23.21 287.478 24.0476 287.217C24.8852 286.942 25.6129 286.551 26.2308 286.043C26.8487 285.535 27.3499 284.924 27.7344 284.21C28.1326 283.482 28.4003 282.665 28.5376 281.759L40.1541 281.841C40.0168 283.626 39.5156 285.445 38.6506 287.299C37.7855 289.139 36.5566 290.842 34.9638 292.407C33.3847 293.959 31.428 295.208 29.0938 296.156C26.7595 297.103 24.0476 297.577 20.9581 297.577C17.0859 297.577 13.612 296.746 10.5362 295.085C7.4742 293.423 5.05066 290.979 3.26562 287.752C1.49432 284.525 0.608665 280.578 0.608665 275.909C0.608665 271.213 1.51491 267.259 3.32741 264.045C5.13991 260.819 7.58404 258.381 10.6598 256.734C13.7356 255.072 17.1683 254.241 20.9581 254.241C23.6219 254.241 26.0729 254.605 28.3111 255.333C30.5492 256.061 32.5128 257.125 34.2017 258.526C35.8906 259.912 37.25 261.622 38.2798 263.654C39.3097 265.686 39.9344 268.014 40.1541 270.636ZM55.0043 297H42.6463L56.5696 254.818H72.223L86.1463 297H73.7884L64.5611 266.435H64.2315L55.0043 297ZM52.6974 280.358H75.9304V288.926H52.6974V280.358ZM90.209 297V254.818H108.416C111.547 254.818 114.286 255.388 116.634 256.528C118.982 257.667 120.809 259.308 122.113 261.45C123.418 263.592 124.07 266.16 124.07 269.153C124.07 272.174 123.397 274.721 122.051 276.795C120.719 278.868 118.845 280.433 116.428 281.491C114.026 282.548 111.218 283.077 108.004 283.077H97.1294V274.179H105.698C107.043 274.179 108.19 274.014 109.137 273.685C110.098 273.341 110.833 272.799 111.341 272.058C111.863 271.316 112.124 270.348 112.124 269.153C112.124 267.945 111.863 266.963 111.341 266.208C110.833 265.439 110.098 264.876 109.137 264.519C108.19 264.148 107.043 263.963 105.698 263.963H101.661V297H90.209ZM114.925 277.639L125.47 297H113.03L102.732 277.639H114.925ZM151.216 297L138.776 254.818H151.546L157.313 280.77H157.642L164.48 254.818H174.531L181.369 280.852H181.699L187.466 254.818H200.236L187.796 297H176.838L169.671 273.438H169.341L162.173 297H151.216ZM209.973 297H197.615L211.538 254.818H227.192L241.115 297H228.757L219.53 266.435H219.2L209.973 297ZM207.666 280.358H230.899V288.926H207.666V280.358ZM266.274 268C266.164 266.627 265.649 265.556 264.729 264.787C263.823 264.018 262.443 263.634 260.589 263.634C259.408 263.634 258.44 263.778 257.685 264.066C256.944 264.341 256.394 264.718 256.037 265.199C255.68 265.679 255.495 266.229 255.481 266.847C255.454 267.355 255.543 267.815 255.749 268.227C255.969 268.625 256.312 268.989 256.779 269.318C257.246 269.634 257.843 269.922 258.571 270.183C259.298 270.444 260.163 270.678 261.166 270.884L264.626 271.625C266.96 272.119 268.958 272.772 270.62 273.582C272.281 274.392 273.641 275.346 274.698 276.445C275.755 277.529 276.531 278.751 277.025 280.111C277.533 281.47 277.794 282.953 277.808 284.56C277.794 287.333 277.101 289.681 275.728 291.604C274.355 293.526 272.391 294.988 269.837 295.991C267.297 296.993 264.242 297.494 260.672 297.494C257.005 297.494 253.806 296.952 251.074 295.867C248.355 294.782 246.24 293.114 244.73 290.862C243.233 288.597 242.478 285.699 242.464 282.17H253.339C253.408 283.461 253.73 284.546 254.307 285.425C254.884 286.304 255.694 286.969 256.738 287.423C257.795 287.876 259.051 288.102 260.507 288.102C261.729 288.102 262.752 287.951 263.576 287.649C264.4 287.347 265.024 286.928 265.45 286.393C265.876 285.857 266.095 285.246 266.109 284.56C266.095 283.914 265.882 283.351 265.471 282.871C265.072 282.376 264.413 281.937 263.493 281.553C262.573 281.154 261.331 280.784 259.765 280.44L255.564 279.534C251.829 278.724 248.883 277.371 246.728 275.477C244.586 273.568 243.521 270.966 243.535 267.67C243.521 264.993 244.235 262.652 245.677 260.647C247.133 258.629 249.144 257.056 251.712 255.93C254.293 254.804 257.252 254.241 260.589 254.241C263.994 254.241 266.94 254.811 269.425 255.951C271.91 257.091 273.826 258.697 275.172 260.771C276.531 262.83 277.217 265.24 277.231 268H266.274ZM282.164 297V254.818H293.616V271.295H308.775V254.818H320.227V297H308.775V280.523H293.616V297H282.164Z" fill="white"/>
</g>
<g filter="url(#filter2_d_0_1)">
<path d="M230.115 83C241.672 83 251 72.631 251 59.7857C251 44.3095 230.115 18 230.115 18C230.115 18 209.231 44.3095 209.231 59.7857C209.231 72.631 218.559 83 230.115 83ZM160.5 83C172.056 83 181.385 72.631 181.385 59.7857C181.385 44.3095 160.5 18 160.5 18C160.5 18 139.615 44.3095 139.615 59.7857C139.615 72.631 148.944 83 160.5 83ZM90.8846 83C102.441 83 111.769 72.631 111.769 59.7857C111.769 44.3095 90.8846 18 90.8846 18C90.8846 18 70 44.3095 70 59.7857C70 72.631 79.3285 83 90.8846 83Z" fill="black"/>
</g>
<g filter="url(#filter3_d_0_1)">
<path d="M216.129 106.269C214.507 101.439 209.964 98 204.611 98H115.389C110.036 98 105.574 101.439 103.871 106.269L87 155.313V220.813C87 225.316 90.65 229 95.1111 229H103.222C107.683 229 111.333 225.316 111.333 220.813V212.625H208.667V220.813C208.667 225.316 212.317 229 216.778 229H224.889C229.35 229 233 225.316 233 220.813V155.313L216.129 106.269ZM115.389 188.063C108.657 188.063 103.222 182.577 103.222 175.781C103.222 168.986 108.657 163.5 115.389 163.5C122.121 163.5 127.556 168.986 127.556 175.781C127.556 182.577 122.121 188.063 115.389 188.063ZM204.611 188.063C197.879 188.063 192.444 182.577 192.444 175.781C192.444 168.986 197.879 163.5 204.611 163.5C211.343 163.5 216.778 168.986 216.778 175.781C216.778 182.577 211.343 188.063 204.611 188.063ZM103.222 147.125L115.389 110.281H204.611L216.778 147.125H103.222Z" fill="black"/>
</g>
<defs>
<filter id="filter0_d_0_1" x="39" y="0" width="244" height="243" filterUnits="userSpaceOnUse" color-interpolation-filters="sRGB">
<feFlood flood-opacity="0" result="BackgroundImageFix"/>
<feColorMatrix in="SourceAlpha" type="matrix" values="0 0 0 0 0 0 0 0 0 0 0 0 0 0 0 0 0 0 127 0" result="hardAlpha"/>
<feOffset dx="2" dy="2"/>
<feComposite in2="hardAlpha" operator="out"/>
<feColorMatrix type="matrix" values="0 0 0 0 0 0 0 0 0 0 0 0 0 0 0 0 0 0 1 0"/>
<feBlend mode="normal" in2="BackgroundImageFix" result="effect1_dropShadow_0_1"/>
<feBlend mode="normal" in="SourceGraphic" in2="effect1_dropShadow_0_1" result="shape"/>
</filter>
<filter id="filter1_d_0_1" x="0.608643" y="254.241" width="321.618" height="45.3353" filterUnits="userSpaceOnUse" color-interpolation-filters="sRGB">
<feFlood flood-opacity="0" result="BackgroundImageFix"/>
<feColorMatrix in="SourceAlpha" type="matrix" values="0 0 0 0 0 0 0 0 0 0 0 0 0 0 0 0 0 0 127 0" result="hardAlpha"/>
<feOffset dx="2" dy="2"/>
<feComposite in2="hardAlpha" operator="out"/>
<feColorMatrix type="matrix" values="0 0 0 0 0 0 0 0 0 0 0 0 0 0 0 0 0 0 1 0"/>
<feBlend mode="normal" in2="BackgroundImageFix" result="effect1_dropShadow_0_1"/>
<feBlend mode="normal" in="SourceGraphic" in2="effect1_dropShadow_0_1" result="shape"/>
</filter>
<filter id="filter2_d_0_1" x="70" y="18" width="183" height="67" filterUnits="userSpaceOnUse" color-interpolation-filters="sRGB">
<feFlood flood-opacity="0" result="BackgroundImageFix"/>
<feColorMatrix in="SourceAlpha" type="matrix" values="0 0 0 0 0 0 0 0 0 0 0 0 0 0 0 0 0 0 127 0" result="hardAlpha"/>
<feOffset dx="2" dy="2"/>
<feComposite in2="hardAlpha" operator="out"/>
<feColorMatrix type="matrix" values="0 0 0 0 0 0 0 0 0 0 0 0 0 0 0 0 0 0 1 0"/>
<feBlend mode="normal" in2="BackgroundImageFix" result="effect1_dropShadow_0_1"/>
<feBlend mode="normal" in="SourceGraphic" in2="effect1_dropShadow_0_1" result="shape"/>
</filter>
<filter id="filter3_d_0_1" x="87" y="98" width="148" height="133" filterUnits="userSpaceOnUse" color-interpolation-filters="sRGB">
<feFlood flood-opacity="0" result="BackgroundImageFix"/>
<feColorMatrix in="SourceAlpha" type="matrix" values="0 0 0 0 0 0 0 0 0 0 0 0 0 0 0 0 0 0 127 0" result="hardAlpha"/>
<feOffset dx="2" dy="2"/>
<feComposite in2="hardAlpha" operator="out"/>
<feColorMatrix type="matrix" values="0 0 0 0 0 0 0 0 0 0 0 0 0 0 0 0 0 0 1 0"/>
<feBlend mode="normal" in2="BackgroundImageFix" result="effect1_dropShadow_0_1"/>
<feBlend mode="normal" in="SourceGraphic" in2="effect1_dropShadow_0_1" result="shape"/>
</filter>
</defs>
</svg>
