<svg width="290" height="306" viewBox="0 0 290 306" fill="none" xmlns="http://www.w3.org/2000/svg">
<g filter="url(#filter0_d_0_1)">
<rect x="24" width="241" height="241" rx="10" fill="white"/>
</g>
<g filter="url(#filter1_d_0_1)">
<rect x="44" y="20" width="201" height="201" rx="10" fill="white"/>
<rect x="42.5" y="18.5" width="204" height="204" rx="11.5" stroke="black" stroke-width="3"/>
</g>
<g filter="url(#filter2_d_0_1)">
<path d="M30.4148 271.818C30.2178 271.015 29.9072 270.311 29.483 269.705C29.0587 269.083 28.5284 268.561 27.892 268.136C27.2708 267.697 26.5436 267.371 25.7102 267.159C24.892 266.932 23.9905 266.818 23.0057 266.818C20.8845 266.818 19.0739 267.326 17.5739 268.341C16.089 269.356 14.9527 270.818 14.1648 272.727C13.392 274.636 13.0057 276.939 13.0057 279.636C13.0057 282.364 13.3769 284.697 14.1193 286.636C14.8617 288.576 15.9678 290.061 17.4375 291.091C18.9072 292.121 20.733 292.636 22.9148 292.636C24.839 292.636 26.4375 292.356 27.7102 291.795C28.9981 291.235 29.9602 290.439 30.5966 289.409C31.233 288.379 31.5511 287.167 31.5511 285.773L33.733 286H23.0966V277H43.733V283.455C43.733 287.697 42.8314 291.326 41.0284 294.341C39.2405 297.341 36.7708 299.644 33.6193 301.25C30.483 302.841 26.8845 303.636 22.8239 303.636C18.2936 303.636 14.3163 302.674 10.892 300.75C7.4678 298.826 4.79356 296.083 2.86932 292.523C0.960227 288.962 0.00568199 284.727 0.00568199 279.818C0.00568199 275.97 0.589015 272.561 1.75568 269.591C2.9375 266.621 4.57386 264.114 6.66477 262.068C8.75568 260.008 11.1723 258.455 13.9148 257.409C16.6572 256.348 19.5966 255.818 22.733 255.818C25.4905 255.818 28.0511 256.212 30.4148 257C32.7936 257.773 34.892 258.879 36.7102 260.318C38.5436 261.742 40.0208 263.432 41.142 265.386C42.2633 267.341 42.9451 269.485 43.1875 271.818H30.4148ZM94.7159 279.727C94.7159 284.909 93.7083 289.28 91.6932 292.841C89.678 296.386 86.9583 299.076 83.5341 300.909C80.1098 302.727 76.2917 303.636 72.0795 303.636C67.8371 303.636 64.0038 302.72 60.5795 300.886C57.1705 299.038 54.4583 296.341 52.4432 292.795C50.4432 289.235 49.4432 284.879 49.4432 279.727C49.4432 274.545 50.4432 270.182 52.4432 266.636C54.4583 263.076 57.1705 260.386 60.5795 258.568C64.0038 256.735 67.8371 255.818 72.0795 255.818C76.2917 255.818 80.1098 256.735 83.5341 258.568C86.9583 260.386 89.678 263.076 91.6932 266.636C93.7083 270.182 94.7159 274.545 94.7159 279.727ZM81.7159 279.727C81.7159 276.939 81.3447 274.591 80.6023 272.682C79.875 270.758 78.7917 269.303 77.3523 268.318C75.928 267.318 74.1705 266.818 72.0795 266.818C69.9886 266.818 68.2235 267.318 66.7841 268.318C65.3598 269.303 64.2765 270.758 63.5341 272.682C62.8068 274.591 62.4432 276.939 62.4432 279.727C62.4432 282.515 62.8068 284.871 63.5341 286.795C64.2765 288.705 65.3598 290.159 66.7841 291.159C68.2235 292.144 69.9886 292.636 72.0795 292.636C74.1705 292.636 75.928 292.144 77.3523 291.159C78.7917 290.159 79.875 288.705 80.6023 286.795C81.3447 284.871 81.7159 282.515 81.7159 279.727ZM113.312 303V256.455H133.403C136.858 256.455 139.881 257.083 142.472 258.341C145.063 259.598 147.078 261.409 148.517 263.773C149.956 266.136 150.676 268.97 150.676 272.273C150.676 275.606 149.934 278.417 148.449 280.705C146.979 282.992 144.911 284.72 142.244 285.886C139.593 287.053 136.494 287.636 132.949 287.636H120.949V277.818H130.403C131.888 277.818 133.153 277.636 134.199 277.273C135.259 276.894 136.07 276.295 136.631 275.477C137.206 274.659 137.494 273.591 137.494 272.273C137.494 270.939 137.206 269.856 136.631 269.023C136.07 268.174 135.259 267.553 134.199 267.159C133.153 266.75 131.888 266.545 130.403 266.545H125.949V303H113.312ZM140.585 281.636L152.222 303H138.494L127.131 281.636H140.585ZM168.153 303H154.517L169.881 256.455H187.153L202.517 303H188.881L178.699 269.273H178.335L168.153 303ZM165.608 284.636H191.244V294.091H165.608V284.636ZM248.267 273.909H235.449C235.358 272.848 235.116 271.886 234.722 271.023C234.343 270.159 233.813 269.417 233.131 268.795C232.464 268.159 231.653 267.674 230.699 267.341C229.744 266.992 228.661 266.818 227.449 266.818C225.328 266.818 223.532 267.333 222.062 268.364C220.608 269.394 219.502 270.871 218.744 272.795C218.002 274.72 217.631 277.03 217.631 279.727C217.631 282.576 218.009 284.962 218.767 286.886C219.54 288.795 220.653 290.235 222.108 291.205C223.563 292.159 225.313 292.636 227.358 292.636C228.525 292.636 229.57 292.492 230.494 292.205C231.419 291.902 232.222 291.47 232.903 290.909C233.585 290.348 234.138 289.674 234.562 288.886C235.002 288.083 235.297 287.182 235.449 286.182L248.267 286.273C248.116 288.242 247.563 290.25 246.608 292.295C245.653 294.326 244.297 296.205 242.54 297.932C240.797 299.644 238.638 301.023 236.062 302.068C233.487 303.114 230.494 303.636 227.085 303.636C222.812 303.636 218.979 302.72 215.585 300.886C212.206 299.053 209.532 296.356 207.562 292.795C205.608 289.235 204.631 284.879 204.631 279.727C204.631 274.545 205.631 270.182 207.631 266.636C209.631 263.076 212.328 260.386 215.722 258.568C219.116 256.735 222.903 255.818 227.085 255.818C230.025 255.818 232.729 256.22 235.199 257.023C237.669 257.826 239.835 259 241.699 260.545C243.563 262.076 245.063 263.962 246.199 266.205C247.335 268.447 248.025 271.015 248.267 273.909ZM254 303V256.455H287.545V266.636H266.636V274.636H285.818V284.818H266.636V292.818H287.455V303H254Z" fill="white"/>
</g>
<g filter="url(#filter3_d_0_1)">
<path d="M44 24C44 21.7909 45.7909 20 48 20H94V70H44V24Z" fill="black"/>
</g>
<g filter="url(#filter4_d_0_1)">
<rect x="44" y="121" width="50" height="50" fill="black"/>
</g>
<g filter="url(#filter5_d_0_1)">
<rect x="94" y="70" width="51" height="51" fill="black"/>
</g>
<g filter="url(#filter6_d_0_1)">
<rect x="94" y="171" width="51" height="50" fill="black"/>
</g>
<g filter="url(#filter7_d_0_1)">
<rect x="145" y="20" width="50" height="50" fill="black"/>
</g>
<g filter="url(#filter8_d_0_1)">
<rect x="145" y="121" width="50" height="50" fill="black"/>
</g>
<g filter="url(#filter9_d_0_1)">
<rect x="195" y="70" width="50" height="51" fill="black"/>
</g>
<g filter="url(#filter10_d_0_1)">
<path d="M195 171H245V215C245 218.314 242.314 221 239 221H195V171Z" fill="black"/>
</g>
<defs>
<filter id="filter0_d_0_1" x="24" y="0" width="243" height="243" filterUnits="userSpaceOnUse" color-interpolation-filters="sRGB">
<feFlood flood-opacity="0" result="BackgroundImageFix"/>
<feColorMatrix in="SourceAlpha" type="matrix" values="0 0 0 0 0 0 0 0 0 0 0 0 0 0 0 0 0 0 127 0" result="hardAlpha"/>
<feOffset dx="2" dy="2"/>
<feComposite in2="hardAlpha" operator="out"/>
<feColorMatrix type="matrix" values="0 0 0 0 0 0 0 0 0 0 0 0 0 0 0 0 0 0 1 0"/>
<feBlend mode="normal" in2="BackgroundImageFix" result="effect1_dropShadow_0_1"/>
<feBlend mode="normal" in="SourceGraphic" in2="effect1_dropShadow_0_1" result="shape"/>
</filter>
<filter id="filter1_d_0_1" x="41" y="17" width="209" height="209" filterUnits="userSpaceOnUse" color-interpolation-filters="sRGB">
<feFlood flood-opacity="0" result="BackgroundImageFix"/>
<feColorMatrix in="SourceAlpha" type="matrix" values="0 0 0 0 0 0 0 0 0 0 0 0 0 0 0 0 0 0 127 0" result="hardAlpha"/>
<feOffset dx="2" dy="2"/>
<feComposite in2="hardAlpha" operator="out"/>
<feColorMatrix type="matrix" values="0 0 0 0 0 0 0 0 0 0 0 0 0 0 0 0 0 0 1 0"/>
<feBlend mode="normal" in2="BackgroundImageFix" result="effect1_dropShadow_0_1"/>
<feBlend mode="normal" in="SourceGraphic" in2="effect1_dropShadow_0_1" result="shape"/>
</filter>
<filter id="filter2_d_0_1" x="0.0057373" y="255.818" width="289.54" height="49.8182" filterUnits="userSpaceOnUse" color-interpolation-filters="sRGB">
<feFlood flood-opacity="0" result="BackgroundImageFix"/>
<feColorMatrix in="SourceAlpha" type="matrix" values="0 0 0 0 0 0 0 0 0 0 0 0 0 0 0 0 0 0 127 0" result="hardAlpha"/>
<feOffset dx="2" dy="2"/>
<feComposite in2="hardAlpha" operator="out"/>
<feColorMatrix type="matrix" values="0 0 0 0 0 0 0 0 0 0 0 0 0 0 0 0 0 0 1 0"/>
<feBlend mode="normal" in2="BackgroundImageFix" result="effect1_dropShadow_0_1"/>
<feBlend mode="normal" in="SourceGraphic" in2="effect1_dropShadow_0_1" result="shape"/>
</filter>
<filter id="filter3_d_0_1" x="44" y="20" width="52" height="52" filterUnits="userSpaceOnUse" color-interpolation-filters="sRGB">
<feFlood flood-opacity="0" result="BackgroundImageFix"/>
<feColorMatrix in="SourceAlpha" type="matrix" values="0 0 0 0 0 0 0 0 0 0 0 0 0 0 0 0 0 0 127 0" result="hardAlpha"/>
<feOffset dx="2" dy="2"/>
<feComposite in2="hardAlpha" operator="out"/>
<feColorMatrix type="matrix" values="0 0 0 0 0 0 0 0 0 0 0 0 0 0 0 0 0 0 1 0"/>
<feBlend mode="normal" in2="BackgroundImageFix" result="effect1_dropShadow_0_1"/>
<feBlend mode="normal" in="SourceGraphic" in2="effect1_dropShadow_0_1" result="shape"/>
</filter>
<filter id="filter4_d_0_1" x="44" y="121" width="52" height="52" filterUnits="userSpaceOnUse" color-interpolation-filters="sRGB">
<feFlood flood-opacity="0" result="BackgroundImageFix"/>
<feColorMatrix in="SourceAlpha" type="matrix" values="0 0 0 0 0 0 0 0 0 0 0 0 0 0 0 0 0 0 127 0" result="hardAlpha"/>
<feOffset dx="2" dy="2"/>
<feComposite in2="hardAlpha" operator="out"/>
<feColorMatrix type="matrix" values="0 0 0 0 0 0 0 0 0 0 0 0 0 0 0 0 0 0 1 0"/>
<feBlend mode="normal" in2="BackgroundImageFix" result="effect1_dropShadow_0_1"/>
<feBlend mode="normal" in="SourceGraphic" in2="effect1_dropShadow_0_1" result="shape"/>
</filter>
<filter id="filter5_d_0_1" x="94" y="70" width="53" height="53" filterUnits="userSpaceOnUse" color-interpolation-filters="sRGB">
<feFlood flood-opacity="0" result="BackgroundImageFix"/>
<feColorMatrix in="SourceAlpha" type="matrix" values="0 0 0 0 0 0 0 0 0 0 0 0 0 0 0 0 0 0 127 0" result="hardAlpha"/>
<feOffset dx="2" dy="2"/>
<feComposite in2="hardAlpha" operator="out"/>
<feColorMatrix type="matrix" values="0 0 0 0 0 0 0 0 0 0 0 0 0 0 0 0 0 0 1 0"/>
<feBlend mode="normal" in2="BackgroundImageFix" result="effect1_dropShadow_0_1"/>
<feBlend mode="normal" in="SourceGraphic" in2="effect1_dropShadow_0_1" result="shape"/>
</filter>
<filter id="filter6_d_0_1" x="94" y="171" width="53" height="52" filterUnits="userSpaceOnUse" color-interpolation-filters="sRGB">
<feFlood flood-opacity="0" result="BackgroundImageFix"/>
<feColorMatrix in="SourceAlpha" type="matrix" values="0 0 0 0 0 0 0 0 0 0 0 0 0 0 0 0 0 0 127 0" result="hardAlpha"/>
<feOffset dx="2" dy="2"/>
<feComposite in2="hardAlpha" operator="out"/>
<feColorMatrix type="matrix" values="0 0 0 0 0 0 0 0 0 0 0 0 0 0 0 0 0 0 1 0"/>
<feBlend mode="normal" in2="BackgroundImageFix" result="effect1_dropShadow_0_1"/>
<feBlend mode="normal" in="SourceGraphic" in2="effect1_dropShadow_0_1" result="shape"/>
</filter>
<filter id="filter7_d_0_1" x="145" y="20" width="52" height="52" filterUnits="userSpaceOnUse" color-interpolation-filters="sRGB">
<feFlood flood-opacity="0" result="BackgroundImageFix"/>
<feColorMatrix in="SourceAlpha" type="matrix" values="0 0 0 0 0 0 0 0 0 0 0 0 0 0 0 0 0 0 127 0" result="hardAlpha"/>
<feOffset dx="2" dy="2"/>
<feComposite in2="hardAlpha" operator="out"/>
<feColorMatrix type="matrix" values="0 0 0 0 0 0 0 0 0 0 0 0 0 0 0 0 0 0 1 0"/>
<feBlend mode="normal" in2="BackgroundImageFix" result="effect1_dropShadow_0_1"/>
<feBlend mode="normal" in="SourceGraphic" in2="effect1_dropShadow_0_1" result="shape"/>
</filter>
<filter id="filter8_d_0_1" x="145" y="121" width="52" height="52" filterUnits="userSpaceOnUse" color-interpolation-filters="sRGB">
<feFlood flood-opacity="0" result="BackgroundImageFix"/>
<feColorMatrix in="SourceAlpha" type="matrix" values="0 0 0 0 0 0 0 0 0 0 0 0 0 0 0 0 0 0 127 0" result="hardAlpha"/>
<feOffset dx="2" dy="2"/>
<feComposite in2="hardAlpha" operator="out"/>
<feColorMatrix type="matrix" values="0 0 0 0 0 0 0 0 0 0 0 0 0 0 0 0 0 0 1 0"/>
<feBlend mode="normal" in2="BackgroundImageFix" result="effect1_dropShadow_0_1"/>
<feBlend mode="normal" in="SourceGraphic" in2="effect1_dropShadow_0_1" result="shape"/>
</filter>
<filter id="filter9_d_0_1" x="195" y="70" width="52" height="53" filterUnits="userSpaceOnUse" color-interpolation-filters="sRGB">
<feFlood flood-opacity="0" result="BackgroundImageFix"/>
<feColorMatrix in="SourceAlpha" type="matrix" values="0 0 0 0 0 0 0 0 0 0 0 0 0 0 0 0 0 0 127 0" result="hardAlpha"/>
<feOffset dx="2" dy="2"/>
<feComposite in2="hardAlpha" operator="out"/>
<feColorMatrix type="matrix" values="0 0 0 0 0 0 0 0 0 0 0 0 0 0 0 0 0 0 1 0"/>
<feBlend mode="normal" in2="BackgroundImageFix" result="effect1_dropShadow_0_1"/>
<feBlend mode="normal" in="SourceGraphic" in2="effect1_dropShadow_0_1" result="shape"/>
</filter>
<filter id="filter10_d_0_1" x="195" y="171" width="52" height="52" filterUnits="userSpaceOnUse" color-interpolation-filters="sRGB">
<feFlood flood-opacity="0" result="BackgroundImageFix"/>
<feColorMatrix in="SourceAlpha" type="matrix" values="0 0 0 0 0 0 0 0 0 0 0 0 0 0 0 0 0 0 127 0" result="hardAlpha"/>
<feOffset dx="2" dy="2"/>
<feComposite in2="hardAlpha" operator="out"/>
<feColorMatrix type="matrix" values="0 0 0 0 0 0 0 0 0 0 0 0 0 0 0 0 0 0 1 0"/>
<feBlend mode="normal" in2="BackgroundImageFix" result="effect1_dropShadow_0_1"/>
<feBlend mode="normal" in="SourceGraphic" in2="effect1_dropShadow_0_1" result="shape"/>
</filter>
</defs>
</svg>
