<svg width="243" height="306" viewBox="0 0 243 306" fill="none" xmlns="http://www.w3.org/2000/svg">
<g filter="url(#filter0_d_0_1)">
<rect width="241" height="241" rx="10" fill="#FFC225"/>
<rect x="1" y="1" width="239" height="239" rx="9" stroke="black" stroke-width="2"/>
</g>
<g filter="url(#filter1_d_0_1)">
<path d="M4.4375 303V256.455H17.0739V274.636H33.8011V256.455H46.4375V303H33.8011V284.818H17.0739V303H4.4375ZM97.5284 279.727C97.5284 284.909 96.5208 289.28 94.5057 292.841C92.4905 296.386 89.7708 299.076 86.3466 300.909C82.9223 302.727 79.1042 303.636 74.892 303.636C70.6496 303.636 66.8163 302.72 63.392 300.886C59.983 299.038 57.2708 296.341 55.2557 292.795C53.2557 289.235 52.2557 284.879 52.2557 279.727C52.2557 274.545 53.2557 270.182 55.2557 266.636C57.2708 263.076 59.983 260.386 63.392 258.568C66.8163 256.735 70.6496 255.818 74.892 255.818C79.1042 255.818 82.9223 256.735 86.3466 258.568C89.7708 260.386 92.4905 263.076 94.5057 266.636C96.5208 270.182 97.5284 274.545 97.5284 279.727ZM84.5284 279.727C84.5284 276.939 84.1572 274.591 83.4148 272.682C82.6875 270.758 81.6042 269.303 80.1648 268.318C78.7405 267.318 76.983 266.818 74.892 266.818C72.8011 266.818 71.036 267.318 69.5966 268.318C68.1723 269.303 67.089 270.758 66.3466 272.682C65.6193 274.591 65.2557 276.939 65.2557 279.727C65.2557 282.515 65.6193 284.871 66.3466 286.795C67.089 288.705 68.1723 290.159 69.5966 291.159C71.036 292.144 72.8011 292.636 74.892 292.636C76.983 292.636 78.7405 292.144 80.1648 291.159C81.6042 290.159 82.6875 288.705 83.4148 286.795C84.1572 284.871 84.5284 282.515 84.5284 279.727ZM143.648 256.455V303H133.102L116.284 278.545H116.011V303H103.375V256.455H114.102L130.648 280.818H131.011V256.455H143.648ZM167.534 303H149.625V256.455H167.352C172.14 256.455 176.277 257.386 179.761 259.25C183.261 261.098 185.958 263.765 187.852 267.25C189.761 270.72 190.716 274.879 190.716 279.727C190.716 284.576 189.769 288.742 187.875 292.227C185.981 295.697 183.299 298.364 179.83 300.227C176.36 302.076 172.261 303 167.534 303ZM162.261 292.273H167.08C169.383 292.273 171.345 291.902 172.966 291.159C174.602 290.417 175.845 289.136 176.693 287.318C177.557 285.5 177.989 282.97 177.989 279.727C177.989 276.485 177.549 273.955 176.67 272.136C175.807 270.318 174.534 269.038 172.852 268.295C171.186 267.553 169.14 267.182 166.716 267.182H162.261V292.273ZM205.716 303H192.08L207.443 256.455H224.716L240.08 303H226.443L216.261 269.273H215.898L205.716 303ZM203.17 284.636H228.807V294.091H203.17V284.636Z" fill="white"/>
</g>
<g filter="url(#filter2_d_0_1)">
<path d="M41 121.457C41 132.023 43.0811 142.485 47.1244 152.247C51.1678 162.008 57.0942 170.878 64.5654 178.349C72.0365 185.82 80.906 191.747 90.6675 195.79C100.429 199.833 110.891 201.914 121.457 201.914C132.023 201.914 142.485 199.833 152.247 195.79C162.008 191.747 170.878 185.82 178.349 178.349C185.82 170.878 191.747 162.008 195.79 152.247C199.833 142.485 201.914 132.023 201.914 121.457C201.914 110.891 199.833 100.429 195.79 90.6675C191.747 80.906 185.82 72.0365 178.349 64.5654C170.878 57.0942 162.008 51.1678 152.247 47.1244C142.485 43.0811 132.023 41 121.457 41C110.891 41 100.429 43.0811 90.6675 47.1244C80.906 51.1678 72.0365 57.0942 64.5654 64.5654C57.0942 72.0365 51.1678 80.906 47.1244 90.6675C43.0811 100.429 41 110.891 41 121.457Z" stroke="black" stroke-width="14" stroke-linecap="round" stroke-linejoin="round"/>
<path d="M103.578 121.457C103.578 126.199 105.462 130.747 108.815 134.1C112.168 137.453 116.715 139.336 121.457 139.336M103.578 121.457C103.578 116.715 105.462 112.167 108.815 108.814C112.168 105.461 116.715 103.578 121.457 103.578C126.199 103.578 130.747 105.461 134.1 108.814C137.453 112.167 139.337 116.715 139.337 121.457M103.578 121.457L43.235 103.578M121.457 139.336C126.199 139.336 130.747 137.453 134.1 134.1C137.453 130.747 139.337 126.199 139.337 121.457M121.457 139.336V201.914M139.337 121.457L199.679 103.578" stroke="black" stroke-width="14" stroke-linecap="round" stroke-linejoin="round"/>
</g>
<defs>
<filter id="filter0_d_0_1" x="0" y="0" width="243" height="243" filterUnits="userSpaceOnUse" color-interpolation-filters="sRGB">
<feFlood flood-opacity="0" result="BackgroundImageFix"/>
<feColorMatrix in="SourceAlpha" type="matrix" values="0 0 0 0 0 0 0 0 0 0 0 0 0 0 0 0 0 0 127 0" result="hardAlpha"/>
<feOffset dx="2" dy="2"/>
<feComposite in2="hardAlpha" operator="out"/>
<feColorMatrix type="matrix" values="0 0 0 0 0 0 0 0 0 0 0 0 0 0 0 0 0 0 1 0"/>
<feBlend mode="normal" in2="BackgroundImageFix" result="effect1_dropShadow_0_1"/>
<feBlend mode="normal" in="SourceGraphic" in2="effect1_dropShadow_0_1" result="shape"/>
</filter>
<filter id="filter1_d_0_1" x="4.4375" y="255.818" width="237.642" height="49.8182" filterUnits="userSpaceOnUse" color-interpolation-filters="sRGB">
<feFlood flood-opacity="0" result="BackgroundImageFix"/>
<feColorMatrix in="SourceAlpha" type="matrix" values="0 0 0 0 0 0 0 0 0 0 0 0 0 0 0 0 0 0 127 0" result="hardAlpha"/>
<feOffset dx="2" dy="2"/>
<feComposite in2="hardAlpha" operator="out"/>
<feColorMatrix type="matrix" values="0 0 0 0 0 0 0 0 0 0 0 0 0 0 0 0 0 0 1 0"/>
<feBlend mode="normal" in2="BackgroundImageFix" result="effect1_dropShadow_0_1"/>
<feBlend mode="normal" in="SourceGraphic" in2="effect1_dropShadow_0_1" result="shape"/>
</filter>
<filter id="filter2_d_0_1" x="34" y="34" width="176.914" height="176.914" filterUnits="userSpaceOnUse" color-interpolation-filters="sRGB">
<feFlood flood-opacity="0" result="BackgroundImageFix"/>
<feColorMatrix in="SourceAlpha" type="matrix" values="0 0 0 0 0 0 0 0 0 0 0 0 0 0 0 0 0 0 127 0" result="hardAlpha"/>
<feOffset dx="2" dy="2"/>
<feComposite in2="hardAlpha" operator="out"/>
<feColorMatrix type="matrix" values="0 0 0 0 0 0 0 0 0 0 0 0 0 0 0 0 0 0 1 0"/>
<feBlend mode="normal" in2="BackgroundImageFix" result="effect1_dropShadow_0_1"/>
<feBlend mode="normal" in="SourceGraphic" in2="effect1_dropShadow_0_1" result="shape"/>
</filter>
</defs>
</svg>
