<svg width="269" height="306" viewBox="0 0 269 306" fill="none" xmlns="http://www.w3.org/2000/svg">
<g filter="url(#filter0_d_0_1)">
<rect x="12" width="242" height="241" rx="10" fill="#FF2525"/>
<rect x="13" y="1" width="240" height="239" rx="9" stroke="black" stroke-width="2"/>
</g>
<g filter="url(#filter1_d_0_1)">
<path d="M0.0625 303V256.455H12.6989V292.818H31.517V303H0.0625ZM49.2614 256.455V303H36.625V256.455H49.2614ZM98.7045 273.909H85.8864C85.7955 272.848 85.553 271.886 85.1591 271.023C84.7803 270.159 84.25 269.417 83.5682 268.795C82.9015 268.159 82.0909 267.674 81.1364 267.341C80.1818 266.992 79.0985 266.818 77.8864 266.818C75.7652 266.818 73.9697 267.333 72.5 268.364C71.0455 269.394 69.9394 270.871 69.1818 272.795C68.4394 274.72 68.0682 277.03 68.0682 279.727C68.0682 282.576 68.447 284.962 69.2045 286.886C69.9773 288.795 71.0909 290.235 72.5455 291.205C74 292.159 75.75 292.636 77.7955 292.636C78.9621 292.636 80.0076 292.492 80.9318 292.205C81.8561 291.902 82.6591 291.47 83.3409 290.909C84.0227 290.348 84.5758 289.674 85 288.886C85.4394 288.083 85.7348 287.182 85.8864 286.182L98.7045 286.273C98.553 288.242 98 290.25 97.0455 292.295C96.0909 294.326 94.7348 296.205 92.9773 297.932C91.2348 299.644 89.0758 301.023 86.5 302.068C83.9242 303.114 80.9318 303.636 77.5227 303.636C73.25 303.636 69.4167 302.72 66.0227 300.886C62.6439 299.053 59.9697 296.356 58 292.795C56.0455 289.235 55.0682 284.879 55.0682 279.727C55.0682 274.545 56.0682 270.182 58.0682 266.636C60.0682 263.076 62.7652 260.386 66.1591 258.568C69.553 256.735 73.3409 255.818 77.5227 255.818C80.4621 255.818 83.1667 256.22 85.6364 257.023C88.1061 257.826 90.2727 259 92.1364 260.545C94 262.076 95.5 263.962 96.6364 266.205C97.7727 268.447 98.4621 271.015 98.7045 273.909ZM104.438 303V256.455H137.983V266.636H117.074V274.636H136.256V284.818H117.074V292.818H137.892V303H104.438ZM184.523 256.455V303H173.977L157.159 278.545H156.886V303H144.25V256.455H154.977L171.523 280.818H171.886V256.455H184.523ZM215.591 271C215.47 269.485 214.902 268.303 213.886 267.455C212.886 266.606 211.364 266.182 209.318 266.182C208.015 266.182 206.947 266.341 206.114 266.659C205.295 266.962 204.689 267.379 204.295 267.909C203.902 268.439 203.697 269.045 203.682 269.727C203.652 270.288 203.75 270.795 203.977 271.25C204.22 271.689 204.598 272.091 205.114 272.455C205.629 272.803 206.288 273.121 207.091 273.409C207.894 273.697 208.848 273.955 209.955 274.182L213.773 275C216.348 275.545 218.553 276.265 220.386 277.159C222.22 278.053 223.72 279.106 224.886 280.318C226.053 281.515 226.909 282.864 227.455 284.364C228.015 285.864 228.303 287.5 228.318 289.273C228.303 292.333 227.538 294.924 226.023 297.045C224.508 299.167 222.341 300.78 219.523 301.886C216.72 302.992 213.348 303.545 209.409 303.545C205.364 303.545 201.833 302.947 198.818 301.75C195.818 300.553 193.485 298.712 191.818 296.227C190.167 293.727 189.333 290.53 189.318 286.636H201.318C201.394 288.061 201.75 289.258 202.386 290.227C203.023 291.197 203.917 291.932 205.068 292.432C206.235 292.932 207.621 293.182 209.227 293.182C210.576 293.182 211.705 293.015 212.614 292.682C213.523 292.348 214.212 291.886 214.682 291.295C215.152 290.705 215.394 290.03 215.409 289.273C215.394 288.561 215.159 287.939 214.705 287.409C214.265 286.864 213.538 286.379 212.523 285.955C211.508 285.515 210.136 285.106 208.409 284.727L203.773 283.727C199.652 282.833 196.402 281.341 194.023 279.25C191.659 277.144 190.485 274.273 190.5 270.636C190.485 267.682 191.273 265.098 192.864 262.886C194.47 260.659 196.689 258.924 199.523 257.682C202.371 256.439 205.636 255.818 209.318 255.818C213.076 255.818 216.326 256.447 219.068 257.705C221.811 258.962 223.924 260.735 225.409 263.023C226.909 265.295 227.667 267.955 227.682 271H215.591ZM233.125 303V256.455H266.67V266.636H245.761V274.636H264.943V284.818H245.761V292.818H266.58V303H233.125Z" fill="white"/>
</g>
<g filter="url(#filter2_d_0_1)">
<path d="M133.808 142.462C159.662 142.462 181.304 133.677 182.615 122.209C178.771 111.425 174.578 99.6649 170.459 88.1062C167.599 96.3506 151.805 102.164 133.81 102.164C115.82 102.164 100.025 96.3485 97.161 88.1083C93.042 99.6649 88.8538 111.423 85.0096 122.209C86.3162 133.677 107.954 142.462 133.808 142.462ZM133.808 69.9342C145.959 69.9342 157.25 66.1721 160.553 60.3311C155.999 47.5394 152.086 36.5648 149.613 29.6399C147.971 25.0255 140.525 22.6286 133.808 22.6286C127.091 22.6286 119.645 25.0255 118 29.6399C115.532 36.5648 111.621 47.5394 107.06 60.3311C110.366 66.1721 121.661 69.9342 133.808 69.9342ZM228.787 153.147L188.166 136.786L192.843 149.837C192.607 163.669 165.756 174.691 133.808 174.691C101.864 174.691 75.0085 163.669 74.777 149.837L79.4498 136.786L38.8332 153.147C27.4454 157.735 26.9695 166.233 37.7732 172.024L114.165 212.987C124.968 218.778 142.652 218.778 153.455 212.987L229.847 172.024C240.653 166.233 240.175 157.735 228.787 153.147Z" fill="#030104"/>
</g>
<defs>
<filter id="filter0_d_0_1" x="12" y="0" width="244" height="243" filterUnits="userSpaceOnUse" color-interpolation-filters="sRGB">
<feFlood flood-opacity="0" result="BackgroundImageFix"/>
<feColorMatrix in="SourceAlpha" type="matrix" values="0 0 0 0 0 0 0 0 0 0 0 0 0 0 0 0 0 0 127 0" result="hardAlpha"/>
<feOffset dx="2" dy="2"/>
<feComposite in2="hardAlpha" operator="out"/>
<feColorMatrix type="matrix" values="0 0 0 0 0 0 0 0 0 0 0 0 0 0 0 0 0 0 1 0"/>
<feBlend mode="normal" in2="BackgroundImageFix" result="effect1_dropShadow_0_1"/>
<feBlend mode="normal" in="SourceGraphic" in2="effect1_dropShadow_0_1" result="shape"/>
</filter>
<filter id="filter1_d_0_1" x="0.0625" y="255.818" width="268.608" height="49.8182" filterUnits="userSpaceOnUse" color-interpolation-filters="sRGB">
<feFlood flood-opacity="0" result="BackgroundImageFix"/>
<feColorMatrix in="SourceAlpha" type="matrix" values="0 0 0 0 0 0 0 0 0 0 0 0 0 0 0 0 0 0 127 0" result="hardAlpha"/>
<feOffset dx="2" dy="2"/>
<feComposite in2="hardAlpha" operator="out"/>
<feColorMatrix type="matrix" values="0 0 0 0 0 0 0 0 0 0 0 0 0 0 0 0 0 0 1 0"/>
<feBlend mode="normal" in2="BackgroundImageFix" result="effect1_dropShadow_0_1"/>
<feBlend mode="normal" in="SourceGraphic" in2="effect1_dropShadow_0_1" result="shape"/>
</filter>
<filter id="filter2_d_0_1" x="29.9714" y="22.6286" width="209.678" height="196.702" filterUnits="userSpaceOnUse" color-interpolation-filters="sRGB">
<feFlood flood-opacity="0" result="BackgroundImageFix"/>
<feColorMatrix in="SourceAlpha" type="matrix" values="0 0 0 0 0 0 0 0 0 0 0 0 0 0 0 0 0 0 127 0" result="hardAlpha"/>
<feOffset dx="2" dy="2"/>
<feComposite in2="hardAlpha" operator="out"/>
<feColorMatrix type="matrix" values="0 0 0 0 0 0 0 0 0 0 0 0 0 0 0 0 0 0 1 0"/>
<feBlend mode="normal" in2="BackgroundImageFix" result="effect1_dropShadow_0_1"/>
<feBlend mode="normal" in="SourceGraphic" in2="effect1_dropShadow_0_1" result="shape"/>
</filter>
</defs>
</svg>
