<svg width="243" height="306" viewBox="0 0 243 306" fill="none" xmlns="http://www.w3.org/2000/svg">
<g filter="url(#filter0_d_0_1)">
<rect width="241" height="241" rx="10" fill="#FFC225"/>
<rect x="1" y="1" width="239" height="239" rx="9" stroke="black" stroke-width="2"/>
</g>
<g filter="url(#filter1_d_0_1)">
<path d="M41.5227 256.455V303H30.9773L14.1591 278.545H13.8864V303H1.25V256.455H11.9773L28.5227 280.818H28.8864V256.455H41.5227ZM60.1364 256.455V303H47.5V256.455H60.1364ZM91.2159 271C91.0947 269.485 90.5265 268.303 89.5114 267.455C88.5114 266.606 86.9886 266.182 84.9432 266.182C83.6402 266.182 82.572 266.341 81.7386 266.659C80.9205 266.962 80.3144 267.379 79.9205 267.909C79.5265 268.439 79.322 269.045 79.3068 269.727C79.2765 270.288 79.375 270.795 79.6023 271.25C79.8447 271.689 80.2235 272.091 80.7386 272.455C81.2538 272.803 81.9129 273.121 82.7159 273.409C83.5189 273.697 84.4735 273.955 85.5795 274.182L89.3977 275C91.9735 275.545 94.178 276.265 96.0114 277.159C97.8447 278.053 99.3447 279.106 100.511 280.318C101.678 281.515 102.534 282.864 103.08 284.364C103.64 285.864 103.928 287.5 103.943 289.273C103.928 292.333 103.163 294.924 101.648 297.045C100.133 299.167 97.9659 300.78 95.1477 301.886C92.3447 302.992 88.9735 303.545 85.0341 303.545C80.9886 303.545 77.4583 302.947 74.4432 301.75C71.4432 300.553 69.1098 298.712 67.4432 296.227C65.7917 293.727 64.9583 290.53 64.9432 286.636H76.9432C77.0189 288.061 77.375 289.258 78.0114 290.227C78.6477 291.197 79.5417 291.932 80.6932 292.432C81.8598 292.932 83.2462 293.182 84.8523 293.182C86.2008 293.182 87.3295 293.015 88.2386 292.682C89.1477 292.348 89.8371 291.886 90.3068 291.295C90.7765 290.705 91.0189 290.03 91.0341 289.273C91.0189 288.561 90.7841 287.939 90.3295 287.409C89.8902 286.864 89.1629 286.379 88.1477 285.955C87.1326 285.515 85.7614 285.106 84.0341 284.727L79.3977 283.727C75.2765 282.833 72.0265 281.341 69.6477 279.25C67.2841 277.144 66.1098 274.273 66.125 270.636C66.1098 267.682 66.8977 265.098 68.4886 262.886C70.0947 260.659 72.3144 258.924 75.1477 257.682C77.9962 256.439 81.2614 255.818 84.9432 255.818C88.7008 255.818 91.9508 256.447 94.6932 257.705C97.4356 258.962 99.5492 260.735 101.034 263.023C102.534 265.295 103.292 267.955 103.307 271H91.2159ZM133.841 271C133.72 269.485 133.152 268.303 132.136 267.455C131.136 266.606 129.614 266.182 127.568 266.182C126.265 266.182 125.197 266.341 124.364 266.659C123.545 266.962 122.939 267.379 122.545 267.909C122.152 268.439 121.947 269.045 121.932 269.727C121.902 270.288 122 270.795 122.227 271.25C122.47 271.689 122.848 272.091 123.364 272.455C123.879 272.803 124.538 273.121 125.341 273.409C126.144 273.697 127.098 273.955 128.205 274.182L132.023 275C134.598 275.545 136.803 276.265 138.636 277.159C140.47 278.053 141.97 279.106 143.136 280.318C144.303 281.515 145.159 282.864 145.705 284.364C146.265 285.864 146.553 287.5 146.568 289.273C146.553 292.333 145.788 294.924 144.273 297.045C142.758 299.167 140.591 300.78 137.773 301.886C134.97 302.992 131.598 303.545 127.659 303.545C123.614 303.545 120.083 302.947 117.068 301.75C114.068 300.553 111.735 298.712 110.068 296.227C108.417 293.727 107.583 290.53 107.568 286.636H119.568C119.644 288.061 120 289.258 120.636 290.227C121.273 291.197 122.167 291.932 123.318 292.432C124.485 292.932 125.871 293.182 127.477 293.182C128.826 293.182 129.955 293.015 130.864 292.682C131.773 292.348 132.462 291.886 132.932 291.295C133.402 290.705 133.644 290.03 133.659 289.273C133.644 288.561 133.409 287.939 132.955 287.409C132.515 286.864 131.788 286.379 130.773 285.955C129.758 285.515 128.386 285.106 126.659 284.727L122.023 283.727C117.902 282.833 114.652 281.341 112.273 279.25C109.909 277.144 108.735 274.273 108.75 270.636C108.735 267.682 109.523 265.098 111.114 262.886C112.72 260.659 114.939 258.924 117.773 257.682C120.621 256.439 123.886 255.818 127.568 255.818C131.326 255.818 134.576 256.447 137.318 257.705C140.061 258.962 142.174 260.735 143.659 263.023C145.159 265.295 145.917 267.955 145.932 271H133.841ZM161.653 303H148.017L163.381 256.455H180.653L196.017 303H182.381L172.199 269.273H171.835L161.653 303ZM159.108 284.636H184.744V294.091H159.108V284.636ZM240.773 256.455V303H230.227L213.409 278.545H213.136V303H200.5V256.455H211.227L227.773 280.818H228.136V256.455H240.773Z" fill="white"/>
</g>
<g filter="url(#filter2_d_0_1)">
<path d="M41 120.457C41 131.023 43.0811 141.485 47.1244 151.247C51.1678 161.008 57.0942 169.878 64.5654 177.349C72.0365 184.82 80.906 190.747 90.6675 194.79C100.429 198.833 110.891 200.914 121.457 200.914C132.023 200.914 142.485 198.833 152.247 194.79C162.008 190.747 170.878 184.82 178.349 177.349C185.82 169.878 191.747 161.008 195.79 151.247C199.833 141.485 201.914 131.023 201.914 120.457C201.914 109.891 199.833 99.429 195.79 89.6675C191.747 79.906 185.82 71.0365 178.349 63.5654C170.878 56.0942 162.008 50.1678 152.247 46.1244C142.485 42.0811 132.023 40 121.457 40C110.891 40 100.429 42.0811 90.6675 46.1244C80.906 50.1678 72.0365 56.0942 64.5654 63.5654C57.0942 71.0365 51.1678 79.906 47.1244 89.6675C43.0811 99.429 41 109.891 41 120.457Z" stroke="black" stroke-width="14" stroke-linecap="round" stroke-linejoin="round"/>
<path d="M103.578 120.457C103.578 125.199 105.462 129.747 108.815 133.1C112.168 136.453 116.715 138.336 121.457 138.336M103.578 120.457C103.578 115.715 105.462 111.167 108.815 107.814C112.168 104.461 116.715 102.578 121.457 102.578C126.199 102.578 130.747 104.461 134.1 107.814C137.453 111.167 139.337 115.715 139.337 120.457M103.578 120.457L43.235 102.578M121.457 138.336C126.199 138.336 130.747 136.453 134.1 133.1C137.453 129.747 139.337 125.199 139.337 120.457M121.457 138.336V200.914M139.337 120.457L199.679 102.578" stroke="black" stroke-width="14" stroke-linecap="round" stroke-linejoin="round"/>
</g>
<defs>
<filter id="filter0_d_0_1" x="0" y="0" width="243" height="243" filterUnits="userSpaceOnUse" color-interpolation-filters="sRGB">
<feFlood flood-opacity="0" result="BackgroundImageFix"/>
<feColorMatrix in="SourceAlpha" type="matrix" values="0 0 0 0 0 0 0 0 0 0 0 0 0 0 0 0 0 0 127 0" result="hardAlpha"/>
<feOffset dx="2" dy="2"/>
<feComposite in2="hardAlpha" operator="out"/>
<feColorMatrix type="matrix" values="0 0 0 0 0 0 0 0 0 0 0 0 0 0 0 0 0 0 1 0"/>
<feBlend mode="normal" in2="BackgroundImageFix" result="effect1_dropShadow_0_1"/>
<feBlend mode="normal" in="SourceGraphic" in2="effect1_dropShadow_0_1" result="shape"/>
</filter>
<filter id="filter1_d_0_1" x="1.25" y="255.818" width="241.523" height="49.7273" filterUnits="userSpaceOnUse" color-interpolation-filters="sRGB">
<feFlood flood-opacity="0" result="BackgroundImageFix"/>
<feColorMatrix in="SourceAlpha" type="matrix" values="0 0 0 0 0 0 0 0 0 0 0 0 0 0 0 0 0 0 127 0" result="hardAlpha"/>
<feOffset dx="2" dy="2"/>
<feComposite in2="hardAlpha" operator="out"/>
<feColorMatrix type="matrix" values="0 0 0 0 0 0 0 0 0 0 0 0 0 0 0 0 0 0 1 0"/>
<feBlend mode="normal" in2="BackgroundImageFix" result="effect1_dropShadow_0_1"/>
<feBlend mode="normal" in="SourceGraphic" in2="effect1_dropShadow_0_1" result="shape"/>
</filter>
<filter id="filter2_d_0_1" x="34" y="33" width="176.914" height="176.914" filterUnits="userSpaceOnUse" color-interpolation-filters="sRGB">
<feFlood flood-opacity="0" result="BackgroundImageFix"/>
<feColorMatrix in="SourceAlpha" type="matrix" values="0 0 0 0 0 0 0 0 0 0 0 0 0 0 0 0 0 0 127 0" result="hardAlpha"/>
<feOffset dx="2" dy="2"/>
<feComposite in2="hardAlpha" operator="out"/>
<feColorMatrix type="matrix" values="0 0 0 0 0 0 0 0 0 0 0 0 0 0 0 0 0 0 1 0"/>
<feBlend mode="normal" in2="BackgroundImageFix" result="effect1_dropShadow_0_1"/>
<feBlend mode="normal" in="SourceGraphic" in2="effect1_dropShadow_0_1" result="shape"/>
</filter>
</defs>
</svg>
