<svg width="273" height="306" viewBox="0 0 273 306" fill="none" xmlns="http://www.w3.org/2000/svg">
<g filter="url(#filter0_d_0_1)">
<rect x="15" width="241" height="241" rx="10" fill="#FFC225"/>
<rect x="16" y="1" width="239" height="239" rx="9" stroke="black" stroke-width="2"/>
</g>
<g filter="url(#filter1_d_0_1)">
<path d="M0.789773 266.636V256.455H41.2443V266.636H27.2443V303H14.7898V266.636H0.789773ZM88.9034 279.727C88.9034 284.909 87.8958 289.28 85.8807 292.841C83.8655 296.386 81.1458 299.076 77.7216 300.909C74.2973 302.727 70.4792 303.636 66.267 303.636C62.0246 303.636 58.1913 302.72 54.767 300.886C51.358 299.038 48.6458 296.341 46.6307 292.795C44.6307 289.235 43.6307 284.879 43.6307 279.727C43.6307 274.545 44.6307 270.182 46.6307 266.636C48.6458 263.076 51.358 260.386 54.767 258.568C58.1913 256.735 62.0246 255.818 66.267 255.818C70.4792 255.818 74.2973 256.735 77.7216 258.568C81.1458 260.386 83.8655 263.076 85.8807 266.636C87.8958 270.182 88.9034 274.545 88.9034 279.727ZM75.9034 279.727C75.9034 276.939 75.5322 274.591 74.7898 272.682C74.0625 270.758 72.9792 269.303 71.5398 268.318C70.1155 267.318 68.358 266.818 66.267 266.818C64.1761 266.818 62.411 267.318 60.9716 268.318C59.5473 269.303 58.464 270.758 57.7216 272.682C56.9943 274.591 56.6307 276.939 56.6307 279.727C56.6307 282.515 56.9943 284.871 57.7216 286.795C58.464 288.705 59.5473 290.159 60.9716 291.159C62.411 292.144 64.1761 292.636 66.267 292.636C68.358 292.636 70.1155 292.144 71.5398 291.159C72.9792 290.159 74.0625 288.705 74.7898 286.795C75.5322 284.871 75.9034 282.515 75.9034 279.727ZM89.5909 256.455H103.682L112.773 275.364H113.136L122.227 256.455H136.318L119.227 288.364V303H106.682V288.364L89.5909 256.455ZM182.278 279.727C182.278 284.909 181.271 289.28 179.256 292.841C177.241 296.386 174.521 299.076 171.097 300.909C167.672 302.727 163.854 303.636 159.642 303.636C155.4 303.636 151.566 302.72 148.142 300.886C144.733 299.038 142.021 296.341 140.006 292.795C138.006 289.235 137.006 284.879 137.006 279.727C137.006 274.545 138.006 270.182 140.006 266.636C142.021 263.076 144.733 260.386 148.142 258.568C151.566 256.735 155.4 255.818 159.642 255.818C163.854 255.818 167.672 256.735 171.097 258.568C174.521 260.386 177.241 263.076 179.256 266.636C181.271 270.182 182.278 274.545 182.278 279.727ZM169.278 279.727C169.278 276.939 168.907 274.591 168.165 272.682C167.438 270.758 166.354 269.303 164.915 268.318C163.491 267.318 161.733 266.818 159.642 266.818C157.551 266.818 155.786 267.318 154.347 268.318C152.922 269.303 151.839 270.758 151.097 272.682C150.369 274.591 150.006 276.939 150.006 279.727C150.006 282.515 150.369 284.871 151.097 286.795C151.839 288.705 152.922 290.159 154.347 291.159C155.786 292.144 157.551 292.636 159.642 292.636C161.733 292.636 163.491 292.144 164.915 291.159C166.354 290.159 167.438 288.705 168.165 286.795C168.907 284.871 169.278 282.515 169.278 279.727ZM184.665 266.636V256.455H225.119V266.636H211.119V303H198.665V266.636H184.665ZM236.091 303H222.455L237.818 256.455H255.091L270.455 303H256.818L246.636 269.273H246.273L236.091 303ZM233.545 284.636H259.182V294.091H233.545V284.636Z" fill="white"/>
</g>
<g filter="url(#filter2_d_0_1)">
<path d="M56 121.457C56 132.023 58.0811 142.485 62.1244 152.247C66.1678 162.008 72.0942 170.878 79.5654 178.349C87.0365 185.82 95.906 191.747 105.668 195.79C115.429 199.833 125.891 201.914 136.457 201.914C147.023 201.914 157.485 199.833 167.247 195.79C177.008 191.747 185.878 185.82 193.349 178.349C200.82 170.878 206.747 162.008 210.79 152.247C214.833 142.485 216.914 132.023 216.914 121.457C216.914 110.891 214.833 100.429 210.79 90.6675C206.747 80.906 200.82 72.0365 193.349 64.5654C185.878 57.0942 177.008 51.1678 167.247 47.1244C157.485 43.0811 147.023 41 136.457 41C125.891 41 115.429 43.0811 105.668 47.1244C95.906 51.1678 87.0365 57.0942 79.5654 64.5654C72.0942 72.0365 66.1678 80.906 62.1244 90.6675C58.0811 100.429 56 110.891 56 121.457Z" stroke="black" stroke-width="14" stroke-linecap="round" stroke-linejoin="round"/>
<path d="M118.578 121.457C118.578 126.199 120.462 130.747 123.815 134.1C127.168 137.453 131.715 139.336 136.457 139.336M118.578 121.457C118.578 116.715 120.462 112.167 123.815 108.814C127.168 105.461 131.715 103.578 136.457 103.578C141.199 103.578 145.747 105.461 149.1 108.814C152.453 112.167 154.337 116.715 154.337 121.457M118.578 121.457L58.235 103.578M136.457 139.336C141.199 139.336 145.747 137.453 149.1 134.1C152.453 130.747 154.337 126.199 154.337 121.457M136.457 139.336V201.914M154.337 121.457L214.679 103.578" stroke="black" stroke-width="14" stroke-linecap="round" stroke-linejoin="round"/>
</g>
<defs>
<filter id="filter0_d_0_1" x="15" y="0" width="243" height="243" filterUnits="userSpaceOnUse" color-interpolation-filters="sRGB">
<feFlood flood-opacity="0" result="BackgroundImageFix"/>
<feColorMatrix in="SourceAlpha" type="matrix" values="0 0 0 0 0 0 0 0 0 0 0 0 0 0 0 0 0 0 127 0" result="hardAlpha"/>
<feOffset dx="2" dy="2"/>
<feComposite in2="hardAlpha" operator="out"/>
<feColorMatrix type="matrix" values="0 0 0 0 0 0 0 0 0 0 0 0 0 0 0 0 0 0 1 0"/>
<feBlend mode="normal" in2="BackgroundImageFix" result="effect1_dropShadow_0_1"/>
<feBlend mode="normal" in="SourceGraphic" in2="effect1_dropShadow_0_1" result="shape"/>
</filter>
<filter id="filter1_d_0_1" x="0.789795" y="255.818" width="271.665" height="49.8182" filterUnits="userSpaceOnUse" color-interpolation-filters="sRGB">
<feFlood flood-opacity="0" result="BackgroundImageFix"/>
<feColorMatrix in="SourceAlpha" type="matrix" values="0 0 0 0 0 0 0 0 0 0 0 0 0 0 0 0 0 0 127 0" result="hardAlpha"/>
<feOffset dx="2" dy="2"/>
<feComposite in2="hardAlpha" operator="out"/>
<feColorMatrix type="matrix" values="0 0 0 0 0 0 0 0 0 0 0 0 0 0 0 0 0 0 1 0"/>
<feBlend mode="normal" in2="BackgroundImageFix" result="effect1_dropShadow_0_1"/>
<feBlend mode="normal" in="SourceGraphic" in2="effect1_dropShadow_0_1" result="shape"/>
</filter>
<filter id="filter2_d_0_1" x="49" y="34" width="176.914" height="176.914" filterUnits="userSpaceOnUse" color-interpolation-filters="sRGB">
<feFlood flood-opacity="0" result="BackgroundImageFix"/>
<feColorMatrix in="SourceAlpha" type="matrix" values="0 0 0 0 0 0 0 0 0 0 0 0 0 0 0 0 0 0 127 0" result="hardAlpha"/>
<feOffset dx="2" dy="2"/>
<feComposite in2="hardAlpha" operator="out"/>
<feColorMatrix type="matrix" values="0 0 0 0 0 0 0 0 0 0 0 0 0 0 0 0 0 0 1 0"/>
<feBlend mode="normal" in2="BackgroundImageFix" result="effect1_dropShadow_0_1"/>
<feBlend mode="normal" in="SourceGraphic" in2="effect1_dropShadow_0_1" result="shape"/>
</filter>
</defs>
</svg>
